<svg height="512pt" viewBox="0 0 512 512" width="512pt" xmlns="http://www.w3.org/2000/svg"><path d="m215.957031 60h80c5.519531 0 10-4.476562 10-10s-4.480469-10-10-10h-80c-5.523437 0-10 4.476562-10 10s4.476563 10 10 10zm0 0"/><path d="m155.957031 100h20c5.523438 0 10-4.476562 10-10s-4.476562-10-10-10h-20c-5.523437 0-10 4.476562-10 10s4.476563 10 10 10zm0 0"/><path d="m315.957031 100h40c5.519531 0 10-4.476562 10-10s-4.480469-10-10-10h-40c-5.523437 0-10 4.476562-10 10s4.476563 10 10 10zm0 0"/><path d="m215.957031 80c-5.523437 0-10 4.476562-10 10s4.476563 10 10 10h60c5.519531 0 10-4.476562 10-10s-4.480469-10-10-10zm0 0"/><path d="m155.957031 140h200c5.519531 0 10-4.476562 10-10s-4.480469-10-10-10h-200c-5.523437 0-10 4.476562-10 10s4.476563 10 10 10zm0 0"/><path d="m355.957031 360h-200c-5.523437 0-10 4.476562-10 10s4.476563 10 10 10h200c5.519531 0 10-4.476562 10-10s-4.476562-10-10-10zm0 0"/><path d="m235.960938 400h-80c-5.519532 0-10.011719 4.488281-10.011719 10s4.492187 10 10.011719 10h80c5.507812 0 10-4.488281 10-10s-4.492188-10-10-10zm0 0"/><path d="m275.949219 400c-5.511719 0-10 4.488281-10 10s4.488281 10 10 10c5.519531 0 10.011719-4.488281 10.011719-10s-4.492188-10-10.011719-10zm0 0"/><path d="m502 160h-76v-150c0-5.523438-4.476562-10-10-10h-320c-5.523438 0-10 4.476562-10 10v150h-76c-5.523438 0-10 4.476562-10 10v160c0 5.523438 4.476562 10 10 10h36v162c0 5.523438 4.476562 10 10 10h400c5.523438 0 10-4.476562 10-10v-162h36c5.523438 0 10-4.476562 10-10v-160c0-5.523438-4.476562-10-10-10zm-396-140h300v140h-300zm20 160h260v20h-260zm320 312h-380v-152h20v122c0 5.523438 4.476562 10 10 10h320c5.523438 0 10-4.476562 10-10v-122h20zm-340-152h300v112h-300zm386-20h-472v-140h86v30c0 5.523438 4.476562 10 10 10h280c5.523438 0 10-4.476562 10-10v-30h86zm0 0"/><path d="m140 290c0 5.523438-4.476562 10-10 10s-10-4.476562-10-10 4.476562-10 10-10 10 4.476562 10 10zm0 0"/><path d="m100 290c0 5.523438-4.476562 10-10 10s-10-4.476562-10-10 4.476562-10 10-10 10 4.476562 10 10zm0 0"/><path d="m60 290c0 5.523438-4.476562 10-10 10s-10-4.476562-10-10 4.476562-10 10-10 10 4.476562 10 10zm0 0"/><path d="m100 250c0 5.523438-4.476562 10-10 10s-10-4.476562-10-10 4.476562-10 10-10 10 4.476562 10 10zm0 0"/><path d="m60 250c0 5.523438-4.476562 10-10 10s-10-4.476562-10-10 4.476562-10 10-10 10 4.476562 10 10zm0 0"/><path d="m140 250c0 5.523438-4.476562 10-10 10s-10-4.476562-10-10 4.476562-10 10-10 10 4.476562 10 10zm0 0"/><path d="m422 300h40c5.523438 0 10-4.476562 10-10v-20c0-16.542969-13.457031-30-30-30s-30 13.457031-30 30v20c0 5.523438 4.476562 10 10 10zm10-30c0-5.515625 4.484375-10 10-10s10 4.484375 10 10v10h-20zm0 0"/></svg>