<?xml version="1.0" encoding="iso-8859-1"?>
<!-- Generator: Adobe Illustrator 19.0.0, SVG Export Plug-In . SVG Version: 6.00 Build 0)  -->
<svg version="1.1" id="Layer_1" xmlns="http://www.w3.org/2000/svg" xmlns:xlink="http://www.w3.org/1999/xlink" x="0px" y="0px"
	 viewBox="0 0 512 512" style="enable-background:new 0 0 512 512;" xml:space="preserve">
<g>
	<g>
		<path d="M324.277,401.067c-0.003,0-0.007,0-0.01,0H187.733c-4.71-0.003-8.531,3.813-8.533,8.523c0,0.003,0,0.007,0,0.01v17.067
			c0.012,9.421,7.646,17.054,17.067,17.067h119.467c9.421-0.012,17.054-7.646,17.067-17.067V409.6
			C332.803,404.89,328.987,401.069,324.277,401.067z M315.733,426.667H196.267v-8.533h119.467V426.667z"/>
	</g>
</g>
<g>
	<g>
		<path d="M324.277,307.2c-0.003,0-0.007,0-0.01,0H187.733c-4.71-0.003-8.531,3.813-8.533,8.523c0,0.003,0,0.007,0,0.01V332.8
			c0.012,9.421,7.646,17.054,17.067,17.067h119.467c9.421-0.012,17.054-7.646,17.067-17.067v-17.067
			C332.803,311.023,328.987,307.203,324.277,307.2z M315.733,332.8H196.267v-8.533h119.467V332.8z"/>
	</g>
</g>
<g>
	<g>
		<path d="M486.4,0H331.058c-12.186,0.002-23.789,5.215-31.883,14.325l-52.992,59.608c-1.595,1.783-3.865,2.813-6.257,2.84
			L44.817,25.875c-4.561-1.188-9.221,1.547-10.409,6.108c-1.188,4.561,1.547,9.221,6.108,10.409L172.415,76.8H25.6
			C11.468,76.815,0.015,88.268,0,102.4v392.533c0.012,9.421,7.646,17.054,17.067,17.067h51.2
			c9.421-0.012,17.054-7.646,17.067-17.067v-17.067h341.333v17.067c0.012,9.421,7.646,17.054,17.067,17.067h51.2
			c9.421-0.012,17.054-7.646,17.067-17.067V25.6C511.985,11.468,500.532,0.015,486.4,0z M68.267,494.933h-51.2v-17.067h51.2V494.933
			z M494.933,494.933h-51.2v-17.067h51.2V494.933z M494.933,460.8H76.8H17.067V384h477.867V460.8z M494.933,366.933H17.067v-76.8
			h477.867V366.933z M494.933,273.067H17.067V136.533h477.867V273.067z M494.933,119.467H17.067V102.4
			c0.003-4.712,3.822-8.53,8.533-8.533h214.2c7.312-0.002,14.274-3.128,19.133-8.592l53-59.617
			c4.855-5.464,11.815-8.591,19.125-8.592H486.4c4.711,0.003,8.53,3.822,8.533,8.533V119.467z"/>
	</g>
</g>
<g>
	<g>
		<path d="M469.343,153.6c-0.003,0-0.007,0-0.01,0h-281.6c-4.71-0.003-8.531,3.813-8.533,8.523c0,0.003,0,0.007,0,0.01v85.333
			c-0.003,4.71,3.813,8.531,8.523,8.533c0.003,0,0.007,0,0.01,0h281.6c4.71,0.003,8.531-3.813,8.533-8.523c0-0.003,0-0.007,0-0.01
			v-85.333C477.869,157.423,474.053,153.603,469.343,153.6z M315.733,238.933H196.267v-68.267h119.467V238.933z M460.8,238.933h-128
			v-68.267h128V238.933z"/>
	</g>
</g>
<g>
	<g>
		<path d="M236.325,190.234c-3.319-3.26-8.639-3.26-11.958,0l-8.533,8.533c-3.362,3.302-3.41,8.704-0.108,12.066
			c3.302,3.362,8.704,3.41,12.066,0.108c0.036-0.036,0.072-0.072,0.108-0.108l8.533-8.533
			C239.735,198.938,239.687,193.536,236.325,190.234z"/>
	</g>
</g>
<g>
	<g>
		<path d="M279.102,190.236c-0.001-0.001-0.002-0.002-0.003-0.003c-3.33-3.332-8.731-3.333-12.064-0.003
			c-0.001,0.001-0.002,0.002-0.003,0.003L249.966,207.3c-3.353,3.312-3.386,8.714-0.074,12.066
			c3.312,3.353,8.714,3.386,12.066,0.074c0.025-0.025,0.05-0.05,0.075-0.075L279.1,202.3
			C282.432,198.969,282.433,193.568,279.102,190.236z"/>
	</g>
</g>
<g>
</g>
<g>
</g>
<g>
</g>
<g>
</g>
<g>
</g>
<g>
</g>
<g>
</g>
<g>
</g>
<g>
</g>
<g>
</g>
<g>
</g>
<g>
</g>
<g>
</g>
<g>
</g>
<g>
</g>
</svg>
