<svg id="Icons" height="512" viewBox="0 0 74 74" width="512" xmlns="http://www.w3.org/2000/svg"><path d="m69 53h-14a1 1 0 0 1 0-2h14a1 1 0 0 0 1-1v-24a1 1 0 0 0 -1-1h-64a1 1 0 0 0 -1 1v24a1 1 0 0 0 1 1h14a1 1 0 0 1 0 2h-14a3 3 0 0 1 -3-3v-24a3 3 0 0 1 3-3h64a3 3 0 0 1 3 3v24a3 3 0 0 1 -3 3z"/><path d="m54.625 25h-35.25a1 1 0 0 1 -1-1v-21a1 1 0 0 1 1-1h25.425a1 1 0 0 1 .707.293l9.83 9.84a1 1 0 0 1 .293.707v11.16a1 1 0 0 1 -1.005 1zm-34.25-2h33.25v-9.746l-9.244-9.254h-24.006z"/><path d="m54.625 13.84h-9.825a1 1 0 0 1 -1-1v-9.84a1 1 0 0 1 2 0v8.84h8.83a1 1 0 0 1 0 2z"/><path d="m55 72h-36a1 1 0 0 1 -1-1v-24a1 1 0 0 1 1-1h36a1 1 0 0 1 1 1v24a1 1 0 0 1 -1 1zm-35-2h34v-22h-34z"/><path d="m57.391 48h-40.782a1.611 1.611 0 0 1 -1.609-1.609v-3.782a1.611 1.611 0 0 1 1.609-1.609h40.782a1.611 1.611 0 0 1 1.609 1.609v3.782a1.611 1.611 0 0 1 -1.609 1.609zm-40.391-2h40v-3h-40z"/><path d="m48.5 56h-23a1 1 0 0 1 0-2h23a1 1 0 0 1 0 2z"/><path d="m48.5 63h-23a1 1 0 0 1 0-2h23a1 1 0 0 1 0 2z"/><path d="m62.678 34.858a3.656 3.656 0 1 1 3.655-3.658 3.661 3.661 0 0 1 -3.655 3.658zm0-5.312a1.656 1.656 0 1 0 1.655 1.654 1.66 1.66 0 0 0 -1.655-1.654z"/><path d="m52.366 34.858a3.656 3.656 0 1 1 3.655-3.658 3.66 3.66 0 0 1 -3.655 3.658zm0-5.312a1.656 1.656 0 1 0 1.655 1.654 1.659 1.659 0 0 0 -1.655-1.654z"/></svg>